<svg xmlns="http://www.w3.org/2000/svg" width="16" height="16" fill="none" viewBox="0 0 40 40">
  <path fill="#3592C4" fill-rule="evenodd"
        d="M26.168 26.306c-.23.046-.472.16-.73.343a13.318 13.318 0 0 1-2.613 1.398 7.877 7.877 0 0 1-2.943.549c-1.156 0-2.22-.224-3.192-.672A7.53 7.53 0 0 1 14.2 26.1c-.687-.768-1.223-1.677-1.608-2.729a9.765 9.765 0 0 1-.578-3.386c0-1.17.192-2.285.578-3.345a8.97 8.97 0 0 1 1.609-2.796 7.507 7.507 0 0 1 2.49-1.906c.972-.466 2.035-.7 3.19-.7a8.56 8.56 0 0 1 2.958.508c.926.338 1.793.772 2.6 1.303.293.2.56.342.798.425.238.082.44.123.605.123.734 0 1.357-.448 1.87-1.344l2.449-4.14c.22-.347.33-.685.33-1.014 0-.475-.12-.873-.357-1.193a3.209 3.209 0 0 0-.963-.836l.082.082a17.21 17.21 0 0 0-4.773-2.358C23.784 2.265 21.936 2 19.937 2c-1.65 0-3.242.21-4.773.63a17.893 17.893 0 0 0-4.278 1.783 18.065 18.065 0 0 0-3.632 2.783 17.275 17.275 0 0 0-2.806 3.619A18.268 18.268 0 0 0 2 19.986c0 1.682.216 3.295.646 4.84a18.593 18.593 0 0 0 1.802 4.318 17.123 17.123 0 0 0 2.806 3.633 18.483 18.483 0 0 0 3.632 2.797 17.559 17.559 0 0 0 4.278 1.795 17.96 17.96 0 0 0 4.773.631c1.999 0 3.892-.315 5.68-.946a20.736 20.736 0 0 0 4.939-2.509c.312-.2.6-.434.866-.699.266-.265.4-.608.4-1.028 0-.11-.042-.256-.125-.439a4.114 4.114 0 0 0-.26-.493l-3.082-4.634c-.275-.42-.541-.694-.798-.822a1.884 1.884 0 0 0-.853-.192c-.128 0-.307.023-.536.068Z"
        clip-rule="evenodd" />
  <path fill="#3592C4" d="M38 19.943a3.83 3.83 0 1 1-3.828-3.83A3.83 3.83 0 0 1 38 19.943Z" />
</svg>
